#!OML:ASF F:\VICON\USERDATA\INSTALL\rory3\rory3.ASF
:FULLY-SPECIFIED
:DEGREES
9
root -0.8657340000000017 17.9847 -28.179799999999986 4.971799999999997 0.8585099999999999 -7.071379999999994
lfemur -38.34459999999997 5.443570000000006 -13.138599999999984
ltibia 90.00430000000003
lfoot 0.7176160000000014 -6.81302
ltoes -4.352370000000005
rfemur -3.30951000000001 2.4629999999999987 34.7114
rtibia 39.915100000000045
rfoot -8.798329999999982 -11.239700000000003
rtoes -21.18389999999996
lowerback nan 1.7412499999999995 5.05218
upperback -1.12981 3.6484799999999975 3.0982399999999988
thorax -10.427599999999998 1.5503699999999996 -0.39516600000000146
lowerneck -18.1885 -4.6110299999999995 -2.49518
upperneck 14.1129 -5.866099999999999 1.4099400000000004
head 7.43348 -2.8029600000000015 0.18511500000000047
lclavicle -1.0883499999999995e-14 -7.951390000000007e-15
lhumerus -63.69409999999998 -9.768540000000007 100.183
lradius 102.92699999999999
lwrist 32.6875
lhand -26.1355 -0.373625999999996
lfingers nan
lthumb 0.41492200000000135 29.6057
rclavicle -1.0883499999999995e-14 -7.951390000000007e-15
rhumerus -39.978900000000024 11.171400000000006 -94.2672
rradius 114.212
rwrist -11.502899999999999
rhand -20.314299999999996 nan
rfingers nan
rthumb 6.036329999999996 10.994
10
root -0.8517499999999997 18.1056 -27.646000000000008 4.7517900000000015 1.2618700000000005 -6.948239999999999
lfemur -38.81259999999996 4.80003999999999 -13.748499999999982
ltibia 86.43080000000005
lfoot -0.965389 -5.68579
ltoes -8.074639999999995
rfemur -1.2175499999999992 2.0964600000000013 34.33539999999999
rtibia 38.48359999999994
rfoot -4.751419999999993 -9.724819999999994
rtoes -20.94180000000002
lowerback nan 2.023019999999998 5.572829999999993
upperback -0.6125569999999989 4.01966 2.5523599999999997
thorax -9.67005 1.7098900000000001 -1.354159999999996
lowerneck -21.1182 -4.956140000000002 -1.5514100000000004
upperneck 15.292900000000001 -6.528119999999997 1.2181900000000012
head 8.296500000000002 -3.0451900000000003 -0.19535199999999997
lclavicle -3.9756900000000045e-15 -8.746530000000007e-15
lhumerus -63.072500000000005 -10.343900000000001 99.2459
lradius 103.02899999999998
lwrist 33.6331
lhand -25.9697 0.7585889999999984
lfingers nan
lthumb 0.5750220000000014 30.7376
rclavicle -3.9756900000000045e-15 -8.746530000000007e-15
rhumerus -38.303399999999996 10.662600000000005 -94.3628
rradius 114.655
rwrist -10.848399999999998
rhand -20.168099999999995 nan
rfingers nan
rthumb 6.177520000000006 11.495399999999998
11
root -0.8369219999999996 18.2115 -27.11459999999996 4.440760000000001 1.9078799999999978 -6.8501199999999995
lfemur -39.00479999999999 3.945580000000006 -14.25620000000001
ltibia 82.67659999999995
lfoot -1.565400000000001 -4.8271999999999995
ltoes -9.088049999999999
rfemur 0.8283859999999841 1.5152900000000011 33.9846
rtibia 36.97380000000004
rfoot 0.04202650000000574 -8.366819999999997
rtoes -20.217600000000026
lowerback nan 1.7965699999999991 5.371309999999992
upperback -1.6558000000000006 3.7791200000000025 2.8456800000000015
thorax -10.855 1.5680700000000007 -0.8790570000000018
lowerneck -16.39109999999999 -4.6856399999999985 -2.308539999999999
upperneck 14.1149 -6.062189999999999 1.415939999999997
head 7.127230000000001 -2.9015799999999987 0.1756139999999991
lclavicle 7.702910000000014e-15 3.896179999999991e-14
lhumerus -66.13549999999996 -7.959179999999991 99.2909
lradius 103.343
lwrist 34.2542
lhand -25.176 0.7869699999999997
lfingers nan
lthumb 1.3415599999999999 30.7625
rclavicle 7.702910000000014e-15 3.896179999999991e-14
rhumerus -40.88030000000001 12.014999999999995 -94.7807
rradius 115.47800000000001
rwrist -10.3831
rhand -19.996900000000004 nan
rfingers nan
rthumb 6.3428200000000015 11.649499999999998
12
root -0.8153809999999997 18.3448 -26.550899999999913 4.3511500000000005 2.639830000000001 -6.456570000000006
lfemur -38.89399999999995 2.9103799999999973 -15.056299999999993
ltibia 78.51289999999997
lfoot -0.279082 -4.086170000000007
ltoes -3.1899799999999923
rfemur 2.6930399999999786 1.0447100000000002 33.270300000000006
rtibia 35.414399999999986
rfoot 5.67911 -7.307949999999998
rtoes -19.874599999999983
lowerback nan 1.793780000000001 5.517220000000009
upperback -1.3225800000000003 3.6935200000000012 2.5363
thorax -10.0544 1.5384300000000002 -1.2442099999999983
lowerneck -18.027899999999995 -4.784649999999999 -1.91482
upperneck 14.748299999999999 -6.257690000000002 1.3257700000000017
head 7.60151 -2.96201 0.0140104000000012
lclavicle 2.9370400000000034e-14 1.4710099999999983e-14
lhumerus -66.05449999999999 -7.436690000000015 98.59
lradius 103.31799999999998
lwrist 35.1496
lhand -24.6525 0.7361009999999983
lfingers nan
lthumb 1.8472100000000005 30.7079
rclavicle 2.9370400000000034e-14 1.4710099999999983e-14
rhumerus -40.070999999999984 12.345300000000003 -94.7497
rradius 115.90899999999999
rwrist -9.85013
rhand -19.689600000000002 nan
rfingers nan
rthumb 6.639460000000007 11.4142
13
root -0.7902619999999996 18.4744 -25.965399999999974 4.374089999999999 2.774790000000002 -6.170920000000008
lfemur -38.54959999999998 2.4539699999999964 -15.725799999999996
ltibia 74.10389999999998
lfoot -2.6981799999999967 -3.12994
ltoes -11.4196
rfemur 4.5192899999999625 1.4233700000000007 32.680099999999996
rtibia 33.96590000000005
rfoot 11.84909999999999 -6.94719
rtoes -15.737399999999955
lowerback nan 1.9733099999999983 5.555509999999991
upperback -1.2809299999999997 3.8377499999999998 2.32407
thorax -9.41161 1.6220099999999986 -1.4831900000000016
lowerneck -18.3029 -4.915549999999998 -1.8737400000000002
upperneck 15.174099999999996 -6.462459999999999 1.3780300000000003
head 7.79352 -3.0451199999999994 -0.012922600000000117
lclavicle -3.3196999999999966e-14 1.6697900000000022e-14
lhumerus -66.64309999999998 -6.673710000000001 98.0409
lradius 103.203
lwrist 35.9131
lhand -24.6016 1.2516399999999992
lfingers nan
lthumb 1.8963299999999994 31.223
rclavicle -3.3196999999999966e-14 1.6697900000000022e-14
rhumerus -40.154799999999994 12.85159999999999 -94.8256
rradius 116.302
rwrist -9.388400000000003
rhand -19.660599999999995 nan
rfingers nan
rthumb 6.667470000000007 11.6191
14
root -0.7683809999999995 18.5714 -25.395700000000033 4.451699999999999 2.844820000000004 -5.8931299999999975
lfemur -38.28690000000004 1.9924499999999976 -16.328900000000004
ltibia 69.48619999999997
lfoot -2.7279200000000023 -2.3225799999999968
ltoes -13.505700000000004
rfemur 6.24503999999995 2.2310100000000035 32.266799999999996
rtibia 32.55780000000004
rfoot 16.106900000000014 -7.374700000000001
rtoes -11.432600000000015
lowerback nan 2.154100000000002 5.452939999999998
upperback -1.4333299999999995 3.9792400000000008 2.1799300000000006
thorax -8.985700000000001 1.7052100000000014 -1.5655200000000005
lowerneck -17.567500000000003 -4.984199999999999 -1.9556
upperneck 15.187400000000002 -6.57254 1.4970000000000023
head 7.68093 -3.0973599999999983 0.04373510000000114
lclavicle 1.4908900000000024e-15 -1.7095499999999978e-14
lhumerus -67.60500000000005 -5.815279999999996 97.593
lradius 103.05600000000001
lwrist 36.3666
lhand -24.7602 1.6091400000000005
lfingers nan
lthumb 1.7431600000000003 31.5818
rclavicle 1.4908900000000024e-15 -1.7095499999999978e-14
rhumerus -40.663899999999984 13.44449999999999 -95.0073
rradius 116.58800000000001
rwrist -8.95122
rhand -20.084100000000003 nan
rfingers nan
rthumb 6.258610000000001 13.183799999999994
15
root -0.751416000000001 18.6367 -24.845600000000026 4.318340000000001 3.266840000000002 -5.591989999999994
lfemur -37.896700000000024 1.1765899999999998 -16.885299999999994
ltibia 64.6677
lfoot -2.1975899999999973 -1.6817699999999958
ltoes -17.53409999999999
rfemur 7.9307200000000115 2.647040000000003 31.972400000000007
rtibia 31.527800000000052
rfoot 19.84350000000003 -7.280120000000001
rtoes -5.419290000000005
lowerback nan 2.190579999999999 5.391869999999994
upperback -1.4899300000000006 3.963249999999995 2.00557
thorax -8.713999999999999 1.705080000000001 -1.6878700000000009
lowerneck -17.311999999999998 -5.080800000000002 -1.97237
upperneck 15.3355 -6.7388400000000015 1.6505000000000016
head 7.69541 -3.1632399999999996 0.08101629999999993
lclavicle 1.3517399999999976e-14 1.7890600000000025e-14
lhumerus -68.30629999999998 -5.091409999999993 97.044
lradius 102.81599999999999
lwrist 36.4813
lhand -24.8873 1.7781600000000002
lfingers nan
lthumb 1.6204600000000002 31.7518
rclavicle 1.3517399999999976e-14 1.7890600000000025e-14
rhumerus -40.69330000000002 13.814999999999996 -94.9592
rradius 117.05300000000003
rwrist -10.3433
rhand -18.774799999999995 nan
rfingers nan
rthumb 7.52256 17.135500000000008
